<svg width="4366" height="1256" viewBox="0 0 4366 1256" fill="none" xmlns="http://www.w3.org/2000/svg">
<path d="M1641.06 921H1545.58L1258.3 486.311V921H1162.82V338.065H1258.3L1545.58 771.916V338.065H1641.06V921ZM2189.4 678.948C2189.4 696.257 2188.29 711.892 2186.05 725.851H1833.45C1836.24 762.703 1849.92 792.296 1874.49 814.631C1899.05 836.966 1929.21 848.133 1964.94 848.133C2016.31 848.133 2052.6 826.636 2073.82 783.642H2176.84C2162.88 826.078 2137.48 860.976 2100.62 888.336C2064.33 915.137 2019.1 928.538 1964.94 928.538C1920.83 928.538 1881.19 918.767 1846.01 899.224C1811.39 879.122 1784.03 851.204 1763.93 815.469C1744.39 779.175 1734.61 737.297 1734.61 689.836C1734.61 642.375 1744.11 600.776 1763.09 565.041C1782.63 528.747 1809.72 500.829 1844.33 481.286C1879.51 461.743 1919.71 451.972 1964.94 451.972C2008.49 451.972 2047.3 461.464 2081.36 480.448C2115.42 499.433 2141.94 526.235 2160.93 560.853C2179.91 594.914 2189.4 634.279 2189.4 678.948ZM2089.74 648.796C2089.18 613.619 2076.61 585.421 2052.05 564.203C2027.48 542.986 1997.05 532.377 1960.75 532.377C1927.81 532.377 1899.61 542.986 1876.16 564.203C1852.71 584.863 1838.75 613.061 1834.28 648.796H2089.74ZM2251.54 688.161C2251.54 641.816 2261.03 600.776 2280.02 565.041C2299.56 529.306 2325.8 501.666 2358.75 482.123C2392.25 462.022 2429.1 451.972 2469.3 451.972C2505.6 451.972 2537.15 459.23 2563.95 473.748C2591.31 487.707 2613.08 505.296 2629.28 526.514V459.51H2725.59V921H2629.28V852.321C2613.08 874.097 2591.03 892.244 2563.11 906.762C2535.19 921.279 2503.36 928.538 2467.63 928.538C2427.98 928.538 2391.69 918.487 2358.75 898.386C2325.8 877.727 2299.56 849.25 2280.02 812.956C2261.03 776.104 2251.54 734.505 2251.54 688.161ZM2629.28 689.836C2629.28 658.009 2622.58 630.37 2609.17 606.919C2596.33 583.467 2579.3 565.599 2558.08 553.315C2536.87 541.031 2513.97 534.889 2489.4 534.889C2464.84 534.889 2441.94 541.031 2420.73 553.315C2399.51 565.041 2382.2 582.63 2368.8 606.081C2355.96 628.974 2349.53 656.334 2349.53 688.161C2349.53 719.988 2355.96 747.906 2368.8 771.916C2382.2 795.926 2399.51 814.352 2420.73 827.194C2442.5 839.478 2465.39 845.62 2489.4 845.62C2513.97 845.62 2536.87 839.478 2558.08 827.194C2579.3 814.91 2596.33 797.043 2609.17 773.591C2622.58 749.581 2629.28 721.663 2629.28 689.836ZM2946.48 526.514C2960.44 503.062 2978.87 484.915 3001.76 472.073C3025.21 458.672 3052.85 451.972 3084.68 451.972V550.803H3060.39C3022.98 550.803 2994.5 560.295 2974.96 579.279C2955.98 598.264 2946.48 631.208 2946.48 678.11V921H2851V459.51H2946.48V526.514ZM3785.53 338.902V921H3690.05V522.326L3512.49 921H3446.33L3267.93 522.326V921H3172.45V338.902H3275.47L3479.83 795.367L3683.35 338.902H3785.53ZM4333.99 678.948C4333.99 696.257 4332.88 711.892 4330.64 725.851H3978.03C3980.82 762.703 3994.5 792.296 4019.07 814.631C4043.64 836.966 4073.79 848.133 4109.53 848.133C4160.9 848.133 4197.19 826.636 4218.41 783.642H4321.43C4307.47 826.078 4282.06 860.976 4245.21 888.336C4208.92 915.137 4163.69 928.538 4109.53 928.538C4065.42 928.538 4025.77 918.767 3990.6 899.224C3955.98 879.122 3928.62 851.204 3908.52 815.469C3888.97 779.175 3879.2 737.297 3879.2 689.836C3879.2 642.375 3888.69 600.776 3907.68 565.041C3927.22 528.747 3954.3 500.829 3988.92 481.286C4024.1 461.743 4064.3 451.972 4109.53 451.972C4153.08 451.972 4191.89 461.464 4225.95 480.448C4260.01 499.433 4286.53 526.235 4305.52 560.853C4324.5 594.914 4333.99 634.279 4333.99 678.948ZM4234.32 648.796C4233.77 613.619 4221.2 585.421 4196.63 564.203C4172.07 542.986 4141.63 532.377 4105.34 532.377C4072.4 532.377 4044.2 542.986 4020.75 564.203C3997.3 584.863 3983.34 613.061 3978.87 648.796H4234.32Z" fill="#293E4B"/>
<path d="M59.8912 964.121C46.3894 956.293 34.5279 945.823 24.9839 933.308C15.4399 920.793 8.40041 906.478 4.2673 891.181C0.134185 875.885 -1.01156 859.905 0.895489 844.156C2.80254 828.406 7.72503 813.195 15.3819 799.391L211.785 445.369C222.486 426.1 238.163 410.21 257.101 399.437C276.039 388.664 297.51 383.423 319.165 384.286C340.821 385.149 361.827 392.084 379.887 404.332C397.948 416.579 412.367 433.669 421.568 453.731L460.865 539.419L583.23 326.957C591.07 313.214 601.487 301.19 613.883 291.573C626.279 281.957 640.41 274.938 655.466 270.919C670.522 266.9 686.205 265.961 701.617 268.154C717.029 270.348 731.865 275.632 745.274 283.702C758.684 291.773 770.403 302.472 779.759 315.184C789.114 327.897 795.923 342.373 799.793 357.783C803.664 373.193 804.52 389.232 802.313 404.981C800.106 420.73 794.879 435.878 786.932 449.556L550.859 859.563C539.943 878.522 524.171 894.074 505.246 904.541C486.321 915.009 464.96 919.996 443.467 918.964C421.974 917.932 401.164 910.92 383.281 898.685C365.399 886.449 351.123 869.455 341.992 849.534L304.58 767.966L220.986 918.618C213.34 932.43 203.105 944.565 190.867 954.329C178.629 964.093 164.628 971.294 149.666 975.52C134.703 979.746 119.073 980.915 103.669 978.959C88.2641 977.003 73.388 971.961 59.8912 964.121ZM648.824 901.683V901.64L633.856 866.216C632.196 862.194 631.548 857.811 631.971 853.467C632.934 848.9 634.826 844.591 637.526 840.821L770.863 605.281C770.863 605.281 774.783 597.258 781.315 597.258C787.848 597.258 790.461 606.618 790.461 606.618L869.474 815.094C875.32 829.966 878.214 845.879 877.988 861.906C877.761 877.932 874.418 893.753 868.154 908.446C861.89 923.139 852.83 936.411 841.5 947.49C830.171 958.568 816.8 967.231 802.165 972.975C787.529 978.719 771.922 981.428 756.253 980.945C740.584 980.462 725.165 976.797 710.894 970.163C696.624 963.529 683.787 954.058 673.13 942.302C662.474 930.547 654.212 916.735 648.824 901.683Z" fill="#015F65"/>
</svg>
