<svg xmlns="http://www.w3.org/2000/svg" version="1.1" xmlns:xlink="http://www.w3.org/1999/xlink" xmlns:svgjs="http://svgjs.dev/svgjs" width="1000" height="1000"><g clip-path="url(#SvgjsClipPath1332)"><rect width="1000" height="1000" fill="#ffffff"></rect><g transform="matrix(2.6666666666666665,0,0,2.6666666666666665,100,100)"><svg xmlns="http://www.w3.org/2000/svg" version="1.1" xmlns:xlink="http://www.w3.org/1999/xlink" xmlns:svgjs="http://svgjs.dev/svgjs" width="300" height="300"><svg width="300" height="300" viewBox="0 0 300 300" fill="none" xmlns="http://www.w3.org/2000/svg">
<path d="M20.464 261.374C15.8506 258.764 11.7977 255.274 8.53665 251.103C5.27561 246.931 2.8703 242.159 1.45807 237.06C0.0458492 231.962 -0.345635 226.635 0.305976 221.385C0.957586 216.135 2.63953 211.065 5.25577 206.464L72.3641 88.4563C76.0203 82.0333 81.3767 76.7367 87.8477 73.1457C94.3186 69.5547 101.655 67.8076 109.054 68.0953C116.454 68.3831 123.631 70.6946 129.802 74.7772C135.973 78.8598 140.9 84.5563 144.044 91.2437L157.471 119.806L199.281 48.9856C201.96 44.4047 205.519 40.3965 209.755 37.191C213.991 33.9856 218.819 31.6459 223.963 30.3063C229.108 28.9667 234.466 28.6535 239.732 29.3848C244.998 30.116 250.068 31.8773 254.65 34.5675C259.231 37.2577 263.236 40.8239 266.432 45.0614C269.629 49.299 271.955 54.1245 273.278 59.261C274.6 64.3976 274.893 69.744 274.139 74.9936C273.385 80.2432 271.599 85.2926 268.883 89.852L188.221 226.521C184.491 232.841 179.102 238.025 172.635 241.514C166.169 245.003 158.87 246.665 151.526 246.321C144.182 245.977 137.072 243.64 130.962 239.562C124.852 235.483 119.974 229.818 116.854 223.178L104.071 195.989L75.5079 246.206C72.8951 250.81 69.3979 254.855 65.2164 258.11C61.0349 261.364 56.2511 263.765 51.1387 265.173C46.0262 266.582 40.6855 266.972 35.4221 266.32C30.1586 265.668 25.0756 263.987 20.464 261.374ZM221.694 240.561V240.547L216.579 228.739C216.012 227.398 215.791 225.937 215.935 224.489C216.264 222.967 216.911 221.53 217.833 220.274L263.393 141.76C263.393 141.76 264.732 139.086 266.964 139.086C269.196 139.086 270.089 142.206 270.089 142.206L297.087 211.698C299.084 216.655 300.073 221.96 299.996 227.302C299.918 232.644 298.776 237.918 296.636 242.815C294.495 247.713 291.4 252.137 287.529 255.83C283.658 259.523 279.089 262.41 274.088 264.325C269.087 266.24 263.755 267.143 258.401 266.982C253.047 266.821 247.778 265.599 242.902 263.388C238.026 261.176 233.64 258.019 229.999 254.101C226.358 250.182 223.535 245.578 221.694 240.561Z" fill="#036064"></path>
</svg></svg></g></g><defs><clipPath id="SvgjsClipPath1332"><rect width="1000" height="1000" x="0" y="0" rx="0" ry="0"></rect></clipPath></defs></svg>